<?xml version="1.0" encoding="utf-8"?>
<!-- Svg Vector Icons : http://www.onlinewebfonts.com/icon -->
<!DOCTYPE svg PUBLIC "-//W3C//DTD SVG 1.1//EN" "http://www.w3.org/Graphics/SVG/1.1/DTD/svg11.dtd">
<svg version="1.1" xmlns="http://www.w3.org/2000/svg" xmlns:xlink="http://www.w3.org/1999/xlink" x="0px" y="0px" viewBox="0 0 1000 750" enable-background="new 0 0 1000 750" xml:space="preserve">
<metadata> Svg Vector Icons : http://www.onlinewebfonts.com/icon </metadata>
<g><g fill="white" transform="translate(0.000000,400.000000) scale(0.100000,-0.100000)"><path d="M8214.2,3600.4c-261.4-57.2-496.3-212.4-580-390.1c-93.9-189.9-28.6-390.1,238.9-745.5c204.2-271.6,241-375.8,241-671.9c-2-179.7-10.2-241-59.2-377.8c-147-424.8-414.6-692.4-780.2-778.1c-339-79.6-941.5,36.8-1127.4,216.5c-98,93.9-112.3,239-36.8,398.3c57.2,122.5,120.5,181.8,308.4,292.1c312.5,183.8,531,410.5,624.9,651.5c40.8,102.1,47,155.2,47,373.7c0,222.6-8.2,277.8-55.2,422.8c-77.6,232.8-161.3,349.2-300.2,418.7c-165.4,83.7-486.1,159.3-737.3,173.6c-198.1,10.2-228.7,8.2-388-44.9c-437.1-145-718.9-355.4-847.6-633.1c-26.5-57.2-67.4-200.1-89.9-316.6c-69.4-345.2-214.4-665.8-373.7-833.3c-177.7-185.9-578-363.5-868-386c-263.5-20.4-674,61.3-908.8,181.8C2291.4,1668.3,1905.4,2138,1642,2618c-106.2,194-228.7,351.3-404.4,512.6c-267.5,245.1-539.2,398.3-700.5,398.3c-155.2,0-326.8-118.5-400.3-275.7c-49-104.2-49-179.7,0-322.7c85.8-251.2,236.9-426.9,386-453.4c83.7-14.3,330.9,24.5,330.9,51.1c0,8.2-63.3,18.4-140.9,24.5c-114.4,6.1-153.2,18.4-214.4,65.4C390,2699.7,343,2785.5,343,2901.9c0,120.5,42.9,208.3,128.7,259.4c122.5,75.6,216.5,49,433-124.6c196.1-155.2,257.3-230.8,502.4-610.7c308.4-482,467.7-690.3,694.4-908.8c214.4-206.3,375.8-320.7,627-441.1c349.2-167.5,706.6-255.3,976.2-239l161.4,10.2l-81.7-69.5c-310.4-271.6-529-363.5-857.8-359.4c-339,2-447.3,40.8-1123.3,390.1c-263.5,134.8-498.3,208.3-676,208.3c-473.8,0-855.7-324.7-959.9-816.9c-49-230.8-30.6-610.7,40.8-831.2c143-441.1,449.3-663.8,747.5-545.3c151.1,61.3,196.1,263.5,83.7,377.8c-83.7,81.7-108.2,77.6-91.9-20.4c10.2-67.4,6.1-83.7-28.6-102.1c-67.4-36.8-251.2-26.5-316.6,16.4C492.1-833.5,390-631.4,355.3-419C322.6-229,437,87.5,614.7,306.1C749.5,469.5,884.3,532.8,1123.2,543c102.1,6.1,220.6-2,275.7-14.3c53.1-14.3,290-116.4,524.9-228.7C2548.8,1.8,2697.9-41.1,3188-61.6l302.3-14.3l-171.5-108.2c-214.4-134.8-486.1-245.1-835.3-343.1c-388-106.2-524.9-183.8-622.9-351.3c-57.2-98-108.2-277.8-108.2-392.1c0-118.4,59.2-312.5,112.3-365.6c63.3-65.3,79.6-47,40.8,44.9c-38.8,94-38.8,243,0,375.8c63.3,212.4,212.4,290,970.1,496.3c890.5,241,1006.9,294.1,1319.3,598.4L4321.5-0.3l8.2-312.5c8.2-236.9,4.1-324.7-16.4-359.5c-47-77.6-410.5-488.1-502.4-567.8c-222.6-192-616.8-292.1-821-206.3c-65.4,26.6-155.2,163.4-155.2,238.9c-2.1,20.4-10.2,16.4-30.6-10.2c-42.9-57.2-36.8-132.7,16.3-226.7c61.3-108.2,155.2-167.5,292.1-185.8c247.1-30.6,441.2,32.7,988.5,324.7l357.4,192l83.7-175.7c120.5-251.2,224.7-381.9,576-716.9c386-365.6,398.2-386,388-569.8c-6.1-110.3-20.4-159.3-69.4-238.9c-110.3-179.7-371.7-298.2-661.7-302.3c-220.6-2-320.7,61.3-355.4,226.7c-12.2,55.1-4.1,75.6,61.3,149.1c71.5,77.6,71.5,81.7,20.4,63.3c-171.5-65.3-257.3-157.2-257.3-275.7c0-147,138.9-314.5,324.7-392.1c196.1-81.7,496.3-69.4,710.8,32.7c328.8,153.2,549.4,384,598.4,627c32.7,153.2-4.1,412.5-81.7,571.9c-57.2,118.4-98,169.5-402.3,516.7c-187.9,214.4-283.9,379.9-361.5,629c-63.3,204.2-65.4,241-10.2,320.7c63.3,91.9,173.6,316.6,200.1,408.5c14.3,44.9,30.6,96,36.8,112.3c4.1,18.4,61.3-69.5,132.8-210.4c108.2-214.4,145-263.5,320.6-439.1c506.5-510.6,837.4-686.2,1397-749.5c451.4-49,800.6-140.9,982.4-255.3c126.6-81.7,328.8-292.1,379.9-398.3c57.2-118.5,85.8-357.4,63.3-531c-24.5-194-128.7-394.2-357.4-682.1c-38.8-49,85.8,26.6,214.5,126.6c181.8,145,314.5,443.2,355.4,800.6c28.6,253.3-108.2,637.2-304.3,859.8c-157.2,177.7-496.3,324.7-961.9,414.6c-122.5,24.5-277.8,53.1-345.2,67.4c-147,28.6-559.6,228.7-700.5,339c-85.8,67.4-320.7,349.2-306.3,365.6c4.1,2,83.8-18.4,177.7-47c488.1-140.9,1002.8-206.3,1354.1-169.5c459.5,47,821,192,1057.9,426.9c298.2,294.1,384,524.9,486.1,1292.8c40.8,308.4,71.5,377.8,179.7,408.5c134.8,38.8,328.8-65.4,375.8-204.2c24.5-73.5,16.4-416.6-12.2-506.5c-36.8-116.4,57.2,87.8,104.2,226.7c96,285.9,44.9,569.8-130.7,727.1c-165.4,149.1-408.5,149.1-557.6-2c-87.8-87.8-104.2-138.9-159.3-506.5c-93.9-610.7-196.1-841.4-459.5-1039.6c-173.6-130.7-506.5-290-686.2-326.8c-298.2-63.3-923.1-6.1-1221.3,112.3c-106.2,42.9-310.4,140.9-310.4,151.1c0,2,167.5,4.1,373.8,6.1c334.9,2,392.1,8.2,575.9,55.1c296.1,79.7,439.1,157.3,637.2,347.2c316.6,302.3,504.5,676,547.3,1086.5c18.4,187.9-16.3,318.6-183.8,663.8c-145,302.3-214.4,498.3-214.4,612.7c0,155.2,89.9,298.2,230.8,371.7c69.5,34.7,108.2,40.8,236.9,32.7c204.2-14.3,355.4-81.7,514.7-234.9c149.1-140.9,222.6-275.7,222.6-402.3c0-118.5-61.3-167.5-177.7-145l-77.6,12.3l40.8-40.8c73.5-73.5,234.9-65.4,318.6,16.3c51.1,51.1,59.2,75.6,59.2,171.6c0,416.6-355.4,831.2-790.4,923.1C8473.6,3637.1,8377.6,3637.1,8214.2,3600.4z"/></g></g>
</svg>